<?xml version="1.0" encoding="utf-8"?>
<!-- Generator: Adobe Illustrator 16.0.0, SVG Export Plug-In . SVG Version: 6.00 Build 0)  -->
<!DOCTYPE svg PUBLIC "-//W3C//DTD SVG 1.1//EN" "http://www.w3.org/Graphics/SVG/1.1/DTD/svg11.dtd">
<svg version="1.1" id="Calque_2_xA0_Image_1_" xmlns="http://www.w3.org/2000/svg" xmlns:xlink="http://www.w3.org/1999/xlink"
	 x="0px" y="0px" width="374.953px" height="351.707px" viewBox="0 0 374.953 351.707" enable-background="new 0 0 374.953 351.707"
	 xml:space="preserve">
<g>
	<path fill-rule="evenodd" clip-rule="evenodd" fill="#F29F83" d="M375.703,71.991c0,8.999,0,17.998,0,26.997
		c-4.83-0.933-7.377,3.426-11.188,4.869c-0.692,0.262-0.976,1.373-2.021,0.344c-5.974-5.885-13.369-8.433-21.522-9.884
		c-10.799-1.921-20.154,0.575-26.123,10.983c-1.512,2.634-2.731,5.397-6.78,5.827c-4.787,0.509-8.637,2.754-11.786,7.258
		c-3.753,5.367-4.718,10.325-2.395,16.125c0.81,2.024-0.355,2.338-1.753,2.708c-2.768,0.732-5.621,1.231-8.288,2.229
		c-14.896,5.576-20.54,16.743-21.23,31.559c-0.397,8.507,1.292,16.792,5.269,24.735c3.876,7.744,9.602,13.225,17.202,16.325
		c12.138,4.95,24.74,4.31,37.137,0.59c4.188-1.257,7.791-2.081,11.854,0.746c2.937,2.044,6.739,2.776,10.496,2.56
		c1.672-0.096,2.351,0.195,2.797,2.256c1.563,7.219-0.384,14.024-3.076,20.247c-4.307,9.951-12.412,16.58-22.897,19.393
		c-4.849,1.3-6.079,4.536-7.113,8.357c-0.828,3.062,1.072,5.239,4.232,5.25c13.567,0.048,28.228-10.952,31.615-24.093
		c2.25-8.729,4.563-17.474,4.647-26.621c0.021-2.252,0.258-5.241,3.436-5.367c6.898-0.272,11.829-4.736,17.488-7.661
		c0,24.996,0,49.994,0,74.99c-15.038,4.466-30.268,5.495-45.817,3.133c-27.612-4.195-50.557-16.903-68.176-38.372
		c-20.579-25.074-28.818-54.025-24.027-86.302c4.428-29.834,18.963-53.842,42.983-71.938c16.722-12.597,35.673-19.496,56.642-21.215
		C350.435,66.944,363.141,68.384,375.703,71.991z"/>
	<path fill-rule="evenodd" clip-rule="evenodd" fill="#FEFEFE" d="M227.938,177.596c-0.097-3.772-3.886-7.43-7.597-7.334
		c-3.772,0.098-7.43,3.886-7.334,7.598c0.098,3.771,3.887,7.429,7.598,7.333C224.377,185.095,228.034,181.307,227.938,177.596z"/>
	<path fill-rule="evenodd" clip-rule="evenodd" fill="#908074" d="M375.703,40.495c-9.894-2.106-19.861-3.811-29.999-3.711
		c-18.658,0.185-36.582,4.094-53.84,11.164c-14.279,5.849-26.824,14.325-38.469,24.396c-15.106,13.065-26.653,28.777-35.01,46.731
		c-5.968,12.819-9.825,26.404-11.466,40.556c-0.64,5.525-1.534,11.017-1.441,16.598c0.31,18.656,4.126,36.582,11.197,53.839
		c5.851,14.278,14.322,26.825,24.394,38.471c13.065,15.105,28.777,26.654,46.731,35.011c12.818,5.967,26.421,9.699,40.55,11.507
		c7.904,1.011,15.813,1.959,23.717,1.264c7.926-0.697,15.871-1.665,23.636-3.608c0,5.75,0,11.499,0,17.248
		c-6.854,0.75-13.695,1.981-20.561,2.126c-8.31,0.175-16.626,0.35-24.979-0.481c-10.446-1.037-20.624-2.961-30.63-6.019
		c-16.477-5.036-31.654-12.675-45.704-22.622c-10.565-7.482-20.04-16.16-28.283-26.119c-9.545-11.532-17.158-24.305-23.145-38.006
		c-5.619-12.861-9.501-26.215-11.368-40.199c-0.392-2.938,0.413-6.154-1.307-8.912c0-8.749,0-17.498,0-26.247
		c0.734-0.277,0.725-0.918,0.74-1.538c0.292-10.912,2.811-21.422,6.035-31.757c5.054-16.195,12.587-31.19,22.422-45.028
		c7.502-10.555,16.168-20.048,26.127-28.306c11.241-9.322,23.683-16.797,36.996-22.736c13.052-5.822,26.653-9.784,40.869-11.793
		c3.076-0.435,6.403,0.416,9.293-1.324c8.748,0,17.497,0,26.246,0c5.697,1.15,11.466,1.754,17.248,2.25
		C375.703,28.997,375.703,34.746,375.703,40.495z"/>
	<path fill-rule="evenodd" clip-rule="evenodd" fill="#F19E82" d="M375.703,179.227c0,8.499,0,16.999,0,25.497
		c-4.555-0.811-8.186,2.901-12.798,2.734c0.204-0.51,0.238-0.972,0.475-1.131c4.148-2.787,6.536-6.831,8.247-11.38
		c0.455-1.213,0.826-2.798-0.083-3.495c-1.217-0.933-2.184,0.509-3.055,1.367c-3.549,3.498-6.837,7.227-11.241,9.823
		c-4.772,2.813-5.055,2.39-9.25-0.966c-4.668-3.732-6.981-8.556-8.981-13.764c-0.337-0.875-0.602-1.271-1.474-1.134
		c-1.098,0.173-0.751,1.077-0.829,1.749c-0.709,6.094,1.546,11.48,3.995,16.83c0.406,0.888,2.342,1.061,1.351,2.534
		c-0.754,1.121-2.112,0.651-3.137,0.535c-3.631-0.411-7.106-1.525-10.583-2.625c-1.167-0.369-3.683-0.828-2.651,1.09
		c1.724,3.204-0.937,2.855-1.982,2.979c-9.208,1.097-18.37,1.385-27.589-0.559c-7.784-1.642-14.306-5.482-18.554-11.753
		c-8.012-11.827-10.231-24.974-5.314-38.75c2.193-6.145,6.24-10.942,12.202-13.86c7.399-3.621,15.075-6.277,23.461-6.228
		c0.841,0.004,1.852,0.188,1.771-1.222c-0.047-0.829-0.613-1.132-1.237-0.982c-2.896,0.699-5.633-1.529-8.688-0.164
		c-1.854,0.828-3.218,0.07-2.619-2.644c1.709-7.745,5.103-14.118,12.953-17.297c1.114,0.514-0.591,2.642,1.381,2.799
		c1.685,0.134,1.841-1.384,2.452-2.374c0.633-1.025,1.305-2.051,1.759-3.16c2.162-5.275,6.348-8.425,11.186-10.978
		c4.44-2.344,8.972-2.443,13.857-1.554c6.115,1.114,12.172,2.289,17.948,4.629c2.445,0.991,2.951,2.56,0.929,4.416
		c-2.645,2.428-2.726,6.177-4.772,8.916c-0.363,0.486-0.59,1.819,0.459,2.275c0.962,0.418,1.54-0.145,1.9-1.135
		c0.239-0.658,0.837-1.184,1.265-1.776c4.512-6.246,9.532-11.873,17.248-14.237c0,7.25,0,14.498,0,21.748
		c-0.489,0-0.992-0.073-1.465,0.018c-0.823,0.159-2.065-0.597-2.274,1.013c-0.163,1.245,0.948,1.288,1.598,1.616
		c0.616,0.311,1.281,1.228,2.142,0.353c0,7.25,0,14.498,0,21.747c-6.856,4.719-9.464,12.313-6.892,20.262
		C369.993,174.644,371.677,177.93,375.703,179.227z M305.164,155.257c-0.49-0.466-0.979-0.932-1.469-1.396
		c-1.062-1.225-0.692-2.878-1.276-4.247c-0.336-0.788-0.254-2.139-1.775-1.285c-1.111,0.565-1.055,1.415-0.575,2.367
		c-0.012,1.912,1.103,3.241,2.33,4.511c0.376,0.892,1.053,1.461,1.937,1.808c0.908,0.817,1.776,1.707,3.112,1.773
		c0.226,0.115,0.452,0.23,0.678,0.345c-0.045,1.148,0.038,2.319-0.157,3.442c-1.809,10.398,4.236,16.998,11.851,19.387
		c4.459,1.399,10.942-1.782,12.436-5.796l-0.098,0.098c2.837-1.479,4.303-4.006,4.788-9.402c0.623-6.924-2.223-12.439-7.942-16.204
		c-5.195-3.419-10.474-2.616-15.213,1.121c-2.02,1.591-2.758,0.25-3.27-1.1c-0.418-1.105-0.174-2.46-0.224-3.704
		c0.209-0.56-0.078-0.788-0.581-0.873c-3.452,1.458-2.005,3.898-1.052,6.036c0.541,1.211,1.778,2.104,1.704,3.627
		c-0.863,0.777-1.888,0.774-2.946,0.612C306.669,156.004,305.916,155.63,305.164,155.257z M287.963,165.919
		c0-1.372,0.058-2.747-0.022-4.114c-0.044-0.751,0.469-1.863-0.909-2.039c-1.314-0.168-1.132,0.83-1.394,1.655
		c-3.746,11.826-0.015,22.104,8.051,29.791c0.927,0.882,2.464,2.442,3.755,1.055c0.98-1.055-0.281-2.595-1.16-3.513
		C290.15,182.344,288.056,174.506,287.963,165.919z M352.875,189.022c4.97-0.036,8.934-2.38,10.996-6.382
		c0.426-0.826,1.05-1.725,0.143-2.271c-1.155-0.694-1.229,0.646-1.682,1.31c-4.818,7.048-13.5,6.983-18.376-0.073
		c-0.4-0.58-0.54-2.067-1.725-1.303c-0.808,0.521-0.456,1.566,0.06,2.355C344.799,186.491,348.063,189.052,352.875,189.022z"/>
	<path fill-rule="evenodd" clip-rule="evenodd" d="M375.703,104.237c-7.716,2.364-12.736,7.991-17.248,14.237
		c-0.428,0.592-1.025,1.118-1.265,1.776c-0.36,0.99-0.938,1.553-1.9,1.135c-1.049-0.456-0.822-1.789-0.459-2.275
		c2.047-2.739,2.128-6.488,4.772-8.916c2.022-1.856,1.517-3.425-0.929-4.416c-5.776-2.34-11.833-3.515-17.948-4.629
		c-4.886-0.889-9.417-0.79-13.857,1.554c-4.838,2.553-9.023,5.703-11.186,10.978c-0.454,1.108-1.126,2.134-1.759,3.16
		c-0.611,0.99-0.768,2.508-2.452,2.374c-1.972-0.158-0.267-2.285-1.381-2.799c-7.851,3.179-11.244,9.552-12.953,17.297
		c-0.599,2.714,0.765,3.472,2.619,2.644c3.056-1.365,5.792,0.863,8.688,0.164c0.624-0.15,1.19,0.153,1.237,0.982
		c0.08,1.41-0.931,1.227-1.771,1.222c-8.386-0.049-16.062,2.606-23.461,6.228c-5.962,2.918-10.009,7.716-12.202,13.86
		c-4.917,13.776-2.697,26.923,5.314,38.75c4.248,6.271,10.77,10.111,18.554,11.753c9.219,1.943,18.381,1.655,27.589,0.559
		c1.046-0.124,3.706,0.225,1.982-2.979c-1.031-1.918,1.484-1.459,2.651-1.09c3.477,1.1,6.952,2.214,10.583,2.625
		c1.024,0.116,2.383,0.586,3.137-0.535c0.991-1.474-0.944-1.646-1.351-2.534c-2.449-5.35-4.704-10.736-3.995-16.83
		c0.078-0.672-0.269-1.576,0.829-1.749c0.872-0.138,1.137,0.259,1.474,1.134c2,5.208,4.313,10.031,8.981,13.764
		c4.195,3.355,4.478,3.779,9.25,0.966c4.404-2.597,7.692-6.325,11.241-9.823c0.871-0.858,1.838-2.3,3.055-1.367
		c0.909,0.697,0.538,2.282,0.083,3.495c-1.711,4.549-4.099,8.593-8.247,11.38c-0.236,0.159-0.271,0.621-0.475,1.131
		c4.612,0.167,8.243-3.545,12.798-2.734c0,1,0,2,0,3c-5.659,2.925-10.59,7.389-17.488,7.661c-3.178,0.126-3.415,3.115-3.436,5.367
		c-0.085,9.147-2.397,17.893-4.647,26.621c-3.388,13.141-18.048,24.141-31.615,24.093c-3.16-0.011-5.061-2.188-4.232-5.25
		c1.034-3.821,2.265-7.058,7.113-8.357c10.485-2.813,18.591-9.441,22.897-19.393c2.692-6.223,4.64-13.028,3.076-20.247
		c-0.446-2.061-1.125-2.352-2.797-2.256c-3.757,0.217-7.56-0.516-10.496-2.56c-4.063-2.827-7.666-2.003-11.854-0.746
		c-12.396,3.72-24.999,4.36-37.137-0.59c-7.601-3.101-13.326-8.581-17.202-16.325c-3.977-7.943-5.666-16.229-5.269-24.735
		c0.69-14.815,6.335-25.982,21.23-31.559c2.667-0.998,5.521-1.497,8.288-2.229c1.397-0.37,2.563-0.684,1.753-2.708
		c-2.323-5.801-1.358-10.758,2.395-16.125c3.149-4.504,6.999-6.75,11.786-7.258c4.049-0.43,5.269-3.193,6.78-5.827
		c5.969-10.408,15.324-12.904,26.123-10.983c8.153,1.451,15.549,3.999,21.522,9.884c1.045,1.029,1.328-0.082,2.021-0.344
		c3.811-1.443,6.357-5.802,11.188-4.869C375.703,100.737,375.703,102.487,375.703,104.237z"/>
	<path fill-rule="evenodd" clip-rule="evenodd" fill="#090807" d="M375.703,179.227c-4.026-1.297-5.71-4.583-6.892-8.234
		c-2.572-7.949,0.035-15.543,6.892-20.262c0,1.25,0,2.5,0,3.75c-4.112,3.692-4.112,8.478,0,12.749
		C375.703,171.229,375.703,175.228,375.703,179.227z"/>
	<path fill-rule="evenodd" clip-rule="evenodd" fill="#F3F3F3" d="M375.703,167.229c-4.112-4.271-4.112-9.057,0-12.749
		C375.703,158.73,375.703,162.979,375.703,167.229z"/>
	<path fill-rule="evenodd" clip-rule="evenodd" d="M375.703,128.984c-0.86,0.875-1.525-0.042-2.142-0.353
		c-0.649-0.328-1.761-0.371-1.598-1.616c0.209-1.61,1.451-0.854,2.274-1.013c0.473-0.091,0.976-0.017,1.465-0.018
		C375.703,126.984,375.703,127.984,375.703,128.984z"/>
	<path fill-rule="evenodd" clip-rule="evenodd" fill="#F2A084" d="M227.938,177.596c0.097,3.711-3.561,7.499-7.333,7.597
		c-3.711,0.096-7.5-3.562-7.598-7.333c-0.096-3.712,3.562-7.5,7.334-7.598C224.052,170.167,227.841,173.824,227.938,177.596z"/>
	<path fill-rule="evenodd" clip-rule="evenodd" fill="#080706" d="M310.296,146.975c0.05,1.244-0.194,2.599,0.224,3.704
		c0.512,1.351,1.25,2.691,3.27,1.1c4.739-3.736,10.018-4.54,15.213-1.121c5.72,3.765,8.565,9.279,7.942,16.204
		c-0.485,5.396-1.951,7.922-4.788,9.401c0.024-1.222,0.172-2.385-0.468-3.607c-0.927-1.77-2.185-2.923-4.115-2.271
		c-1.876,0.635-2.645,2.337-2.003,4.253c0.644,1.924,2.035,2.701,4.121,1.946c0.8-0.289,1.706-0.288,2.563-0.418
		c-1.493,4.014-7.977,7.195-12.436,5.796c-7.614-2.39-13.659-8.989-11.851-19.387c0.195-1.123,0.112-2.294,0.157-3.442
		c0.688-1.163,2.622-1.496,2.242-3.369c0.074-1.523-1.163-2.416-1.704-3.627c-0.953-2.137-2.4-4.578,1.052-6.035
		C309.908,146.394,310.103,146.684,310.296,146.975z M312.691,160.904c0.037,3.824,3.869,7.795,7.529,7.802
		c3.941,0.009,7.524-4.006,7.439-8.333c-0.085-4.291-3.391-7.895-7.333-7.994C316.349,152.278,312.648,156.411,312.691,160.904z"/>
	<path fill-rule="evenodd" clip-rule="evenodd" d="M287.963,165.919c0.093,8.587,2.188,16.425,8.32,22.835
		c0.879,0.918,2.141,2.458,1.16,3.513c-1.291,1.388-2.828-0.173-3.755-1.055c-8.065-7.687-11.797-17.964-8.051-29.791
		c0.262-0.826,0.079-1.824,1.394-1.655c1.378,0.176,0.865,1.288,0.909,2.039C288.021,163.172,287.963,164.547,287.963,165.919z"/>
	<path fill-rule="evenodd" clip-rule="evenodd" fill="#211815" d="M352.875,189.022c-4.813,0.03-8.076-2.531-10.584-6.363
		c-0.516-0.789-0.867-1.835-0.06-2.355c1.185-0.765,1.324,0.723,1.725,1.303c4.876,7.057,13.558,7.121,18.376,0.073
		c0.453-0.664,0.526-2.004,1.682-1.31c0.907,0.546,0.283,1.444-0.143,2.271C361.809,186.642,357.845,188.986,352.875,189.022z"/>
	<path fill-rule="evenodd" clip-rule="evenodd" fill="#080706" d="M300.644,148.329c1.521-0.854,1.439,0.497,1.775,1.285
		c0.584,1.369,0.215,3.022,1.276,4.246c-0.053,0.815-0.453,1.294-1.297,1.347c-1.228-1.271-2.342-2.6-2.33-4.511
		C300.833,150.046,300.694,149.177,300.644,148.329z"/>
	<path fill-rule="evenodd" clip-rule="evenodd" fill="#080706" d="M307.447,158.788c-1.336-0.066-2.204-0.956-3.112-1.773
		c0.276-0.586,0.553-1.172,0.829-1.758c0.752,0.374,1.505,0.747,2.257,1.12C307.43,157.181,307.438,157.985,307.447,158.788z"/>
	<path fill-rule="evenodd" clip-rule="evenodd" fill="#191311" d="M307.447,158.788c-0.009-0.803-0.018-1.607-0.026-2.412
		c1.059,0.162,2.083,0.166,2.946-0.612c0.38,1.873-1.554,2.206-2.242,3.369C307.899,159.018,307.673,158.903,307.447,158.788z"/>
	<path fill-rule="evenodd" clip-rule="evenodd" fill="#191311" d="M305.164,155.257c-0.276,0.586-0.553,1.172-0.829,1.758
		c-0.884-0.347-1.561-0.916-1.937-1.808c0.844-0.053,1.244-0.532,1.297-1.347C304.185,154.325,304.674,154.791,305.164,155.257z"/>
	<path fill-rule="evenodd" clip-rule="evenodd" fill="#191311" d="M300.644,148.329c0.051,0.848,0.189,1.717-0.575,2.367
		C299.589,149.744,299.532,148.895,300.644,148.329z"/>
	<path fill-rule="evenodd" clip-rule="evenodd" fill="#191311" d="M310.296,146.975c-0.193-0.291-0.388-0.582-0.581-0.872
		C310.218,146.187,310.505,146.416,310.296,146.975z"/>
	<path fill-rule="evenodd" clip-rule="evenodd" fill="#F7F7F7" d="M312.691,160.904c-0.043-4.493,3.657-8.625,7.636-8.525
		c3.942,0.1,7.248,3.703,7.333,7.994c0.085,4.327-3.498,8.342-7.439,8.333C316.561,168.699,312.729,164.728,312.691,160.904z"/>
	<path fill-rule="evenodd" clip-rule="evenodd" fill="#F3F3F3" d="M332.254,176.167c-0.856,0.13-1.763,0.129-2.563,0.418
		c-2.086,0.755-3.478-0.021-4.121-1.946c-0.642-1.917,0.127-3.618,2.003-4.253c1.931-0.652,3.188,0.5,4.115,2.271
		c0.64,1.222,0.492,2.385,0.468,3.607C332.156,176.264,332.254,176.167,332.254,176.167z"/>
</g>
</svg>
