<?xml version="1.0" encoding="utf-8"?>
<!-- Generator: Adobe Illustrator 16.0.0, SVG Export Plug-In . SVG Version: 6.00 Build 0)  -->
<!DOCTYPE svg PUBLIC "-//W3C//DTD SVG 1.1//EN" "http://www.w3.org/Graphics/SVG/1.1/DTD/svg11.dtd">
<svg version="1.1" id="Calque_1" xmlns="http://www.w3.org/2000/svg" xmlns:xlink="http://www.w3.org/1999/xlink" x="0px" y="0px"
	 width="416px" height="416px" viewBox="0 0 416 416" enable-background="new 0 0 416 416" xml:space="preserve">
<g>
	<path fill-rule="evenodd" clip-rule="evenodd" fill="#908175" d="M224.972,0c3.679,2.297,7.968,1.219,11.888,1.743
		c18.651,2.492,36.46,7.673,53.617,15.17c18.279,7.987,35.309,18.154,50.695,30.884c13.291,10.997,24.821,23.676,34.842,37.737
		c12.849,18.028,22.703,37.58,29.466,58.624c4.515,14.05,7.31,28.444,8.674,43.23c1.059,11.479,1.24,22.948,0.597,34.318
		c-1.236,21.841-5.988,43.081-14.394,63.38c-8.396,20.274-19.135,39.23-33.231,56.078c-16.979,20.293-37.211,36.667-60.692,49.038
		c-15.729,8.286-31.999,15.059-49.319,19.146c-9.57,2.257-19.25,3.731-29.063,4.793c-9.811,1.061-19.572,0.901-29.33,0.712
		c-23.833-0.463-46.809-5.522-68.861-14.524c-20.315-8.292-39.223-19.131-56.089-33.206c-20.457-17.072-36.869-37.495-49.288-61.127
		c-8.189-15.582-14.874-31.728-18.882-48.894c-2.273-9.733-4.554-19.49-4.616-29.582c-0.006-0.944,0.247-2.051-0.985-2.548
		c0-11.665,0-23.33,0-34.996c0.98-0.366,0.963-1.218,0.989-2.043c0.462-14.342,3.729-28.155,7.924-41.788
		c6.747-21.925,16.926-42.133,30.208-60.832c9.99-14.063,21.561-26.66,34.806-37.659c15.086-12.53,31.841-22.522,49.718-30.45
		c17.22-7.637,35.204-12.818,53.965-15.438c4.092-0.571,8.522,0.555,12.366-1.765C201.641,0,213.307,0,224.972,0z M393.951,207.384
		c-2.159-103.794-83.005-183.919-181.953-185.909C103.689,19.297,23.41,104.797,21.455,202.824
		c-2.161,108.388,83.417,188.794,181.744,190.701C310.481,395.604,392.292,309.82,393.951,207.384z"/>
	<path fill-rule="evenodd" clip-rule="evenodd" fill="#F29F83" d="M353.953,208.832c-1.186,81.431-64.894,146.02-146.212,145.9
		c-81.274-0.12-145.848-65.001-145.527-146.866C62.532,126.51,127.06,61.964,208.456,62.217
		C289.533,62.469,353.142,127.156,353.953,208.832z M147.837,169.865l0.021-0.043c-1.549,0.728-1.369,1.865-0.737,3.11
		c-0.029,2.554,1.475,4.317,3.106,6.015c0.496,1.196,1.407,1.947,2.585,2.413c2.056,2.148,6.498,2.703,4.904,7.294
		c-3.137,9.038,3.211,22.204,15.258,25.803c6.193,1.851,14.985-1.967,17.052-7.559l-0.115,0.115
		c3.822-1.981,5.731-5.231,6.391-12.531c0.833-9.226-2.974-16.582-10.593-21.602c-6.922-4.559-13.963-3.492-20.285,1.484
		c-2.682,2.11-3.68,0.363-4.364-1.456c-0.555-1.475-0.231-3.28-0.297-4.939c0.278-0.747-0.107-1.051-0.778-1.164
		c-4.583,1.949-2.67,5.2-1.398,8.049c0.719,1.613,2.368,2.802,2.267,4.833c-1.151,1.027-2.52,1.013-3.925,0.816
		c-1.003-0.497-2.006-0.994-3.008-1.491c-0.654-0.622-1.308-1.243-1.961-1.864c-1.847-2.087-0.514-5.337-2.67-7.312
		C148.787,168.953,148.298,168.746,147.837,169.865z M276.939,183.684c5.169-1.477,7.814-5.254,8.979-10.19
		c0.264-1.118,0.753-3.021-0.907-3.466c-1.794-0.479-1.893,1.19-2.135,2.539c-0.806,4.489-3.292,7.484-7.882,8.495
		c-2.21-0.901-2.688-2.318-1.218-4.254c1.115-1.47,2.084-3.013,2.461-4.84c0.451-2.186,0.366-5.006-1.936-5.233
		c-2.286-0.225-1.14,2.566-1.177,4.011c-0.055,2.107-1.163,3.523-2.717,4.459c-1.543,0.931-2.161-0.942-3.188-1.607
		c-4.784-3.098-9.708-4.597-15.471-2.462c-14.4,5.332-17.133,21.887-11.4,32.984c3.966,7.678,13.652,12.304,20.24,10.366
		c11.438-3.367,18.192-14.789,15.729-26.662C276.009,186.333,275.632,184.9,276.939,183.684z M159.736,126.998
		c2.287,0.985-0.141,3.904,2.757,3.957c1.932,0.035,2.258-1.588,2.929-2.882c0.814-1.57,1.828-3.046,2.54-4.659
		c2.972-6.737,8.314-11.074,14.589-14.405c6.008-3.189,12.263-3.436,18.961-2.14c8.131,1.573,16.232,3.063,23.911,6.255
		c2.924,1.215,3.802,3.247,1.278,5.559c-3.536,3.241-3.772,8.171-6.459,11.83c-0.635,0.864-0.757,2.554,0.268,3.203
		c1.393,0.882,2.035-0.263,2.881-1.517c3.496-5.186,7.51-9.957,12.099-14.257c8.854-8.299,23.006-9.5,31.712-2.07
		c6.264,5.345,12.397,10.819,17.654,17.329c10.035,12.43,13.938,26.466,11.967,42.029c-0.967,7.635-3.088,15.181-8.074,21.461
		c-0.807,1.016-1.375,2.257-0.223,3c1.617,1.041,2.892-0.329,3.701-1.539c4.587-6.854,9.466-13.456,11.176-21.918
		c2.594-12.837,2.356-25.23-2.997-37.403c-5.285-12.018-14.707-20.586-24.699-28.157c-6.013-4.554-13.421-7.517-21.688-7.87
		c-8.385-0.358-14.626,3.646-21.052,7.766c-0.986,0.632-1.434,1.523-2.707,0.272c-7.849-7.713-17.575-11.046-28.258-13.046
		c-17.979-3.368-30.158,2.885-37.872,19.421c-0.797,1.708-1.584,1.5-2.797,1.806c-7.439,1.872-14.479,3.452-19.386,11.003
		c-4.58,7.05-6.246,13.569-3.188,21.102c1.276,3.141-0.301,3.348-2.436,3.86c-4.354,1.043-8.985,1.533-12.979,3.381
		c-18.17,8.408-26.026,23.661-26.19,42.906c-0.093,10.852,1.762,21.47,6.977,31.537c5.495,10.608,13.277,17.953,24.252,22.241
		c15.989,6.247,32.013,4.645,48.225,0.839c3.514-0.825,6.705-4.432,10.929-1.84c6.053,3.716,12.518,6.257,19.798,5.9
		c1.793-0.088,2.272,0.495,2.76,2.39c2.473,9.597-0.231,18.85-3.689,27.13c-5.931,14.202-17.979,22.665-32.467,27.391
		c-5.351,1.746-9.15,8.323-7.592,13.927c0.646,2.324,1.647,3.227,4.316,3.26c18.702,0.227,38.554-14.205,43.206-32.197
		c3.011-11.641,6.126-23.31,6.172-35.518c0.015-3.821,1.044-7.043,6.092-7.469c6.01-0.507,11.202-3.121,16.104-6.919
		c1.905-1.477,4.738-3.616,8.646-2.272c3.709,1.275,7.811,1.997,11.903,2.468c17.969,2.067,34.289,0.246,48.266-13.363
		c9.062-8.822,13.898-18.292,12.965-30.89c-0.62-8.374-10.705-19.093-17.954-21.812c-0.805-0.302-2.318-0.153-2.778,0.395
		c-0.778,0.928-0.287,2.107,0.686,3.02c1.698,1.595,3.4,3.205,4.928,4.958c5.623,6.459,9.464,13.738,5.936,22.317
		c-4.612,11.214-13.283,18.874-24.032,24.153c-11.798,5.793-24.509,5.34-37.165,5.023c-0.888-0.021-2.283,0.504-2.506-0.839
		c-0.511-3.073-1.707-1.896-3.714-1.251c-5.356,1.719-10.538,4.211-16.886,4.917c5.212-5.167,9.783-9.891,11.807-16.498
		c0.559-1.823,1.39-4.016,0.006-5c-1.89-1.343-3.22,0.99-4.383,2.247c-5.321,5.75-10.993,10.957-18.092,14.574
		c-3.058,1.559-6.127,0.886-7.64-0.867c-5.378-6.23-11.227-12.329-13.212-20.756c-0.23-0.977-0.523-1.438-1.528-1.472
		c-1.481-0.052-1.43,0.946-1.515,1.97c-0.717,8.593,1.72,16.359,6.133,23.615c0.47,0.773,1.887,1.148,1.3,2.342
		c-0.61,1.241-1.925,1.032-3.086,1.047c-4.983,0.065-9.508-2.008-14.242-3.087c-1.567-0.357-3.233-1.756-4.627-0.542
		c-1.788,1.558,0.935,2.871,1.225,4.528c-14.409,2.921-28.358,3.03-42.357-0.159c-9.947-2.267-17.959-7.742-23.617-15.771
		c-7.407-10.514-10.024-22.659-9.826-35.641c0.252-16.489,9.596-32.013,27.103-37.446c7.801-2.421,15.451-5.116,23.76-4.895
		c0.935,0.025,2.064,0.202,2.202-1.277c0.126-1.362-0.686-1.923-1.794-1.66c-3.864,0.914-7.596-2.213-11.586-0.188
		c-0.958,0.486-4.106,1.081-3.457-1.73c1.669-7.227,2.792-14.943,9.318-19.797C154.859,130.492,157.494,128.865,159.736,126.998z
		 M130.983,193.468c0-1.83,0.1-3.667-0.037-5.484c-0.084-1.112,0.82-2.876-1.463-2.967c-1.874-0.075-1.367,1.485-1.664,2.454
		c-4.807,15.666-0.022,28.984,10.597,39.344c1.317,1.284,3.433,3.209,5.031,1.695c1.708-1.618-0.339-3.729-1.559-5.007
		C133.823,215.06,131.257,204.697,130.983,193.468z M267.967,165.246c0.167-12.334-8.944-22.317-19.826-25.094
		c-1.542-0.394-4.116-1.205-4.931,0.681c-1.065,2.471,1.797,2.481,3.191,3.277c6.706,3.828,12.791,8.247,15.571,15.91
		c0.991,2.73,2.113,5.421,2.912,8.206c0.321,1.12,0.543,1.825,1.815,1.722c1.505-0.122,1.199-1.284,1.253-2.206
		C268.002,166.913,267.964,166.079,267.967,165.246z M269.222,235.025c10.592-1.375,19.213-5.791,24.038-15.875
		c0.966-2.018,1.941-4.123,1.707-6.511c-0.086-0.881-0.205-1.665-1.329-1.635c-0.63,0.018-1.221,0.002-1.606,0.771
		c-4.987,9.935-13.325,15.782-23.542,19.431c-0.959,0.342-2.831,0.543-2.491,2.497C266.371,235.84,268.108,234.59,269.222,235.025z
		 M218.08,224.066c5.915-0.166,10.943-2.688,14.117-8.54c0.596-1.097,1.387-2.318,0.192-3.043c-1.526-0.925-1.647,0.84-2.259,1.737
		c-6.411,9.441-18.018,9.337-24.525-0.127c-0.526-0.767-0.667-2.798-2.301-1.715c-1.072,0.711-0.642,2.096,0.061,3.142
		C206.756,220.567,211.05,224.108,218.08,224.066z"/>
	<path fill-rule="evenodd" clip-rule="evenodd" fill="#F2A184" d="M41.048,199.015c4.995,0.041,9.946,5.045,9.906,10.012
		c-0.041,4.995-5.046,9.946-10.013,9.905c-4.995-0.041-9.946-5.046-9.905-10.013C31.077,203.927,36.082,198.974,41.048,199.015z"/>
	<path fill-rule="evenodd" clip-rule="evenodd" fill="#F2A085" d="M387.892,209.197c-0.18,5.008-5.452,9.986-10.287,9.716
		c-5.048-0.283-9.938-5.6-9.575-10.412c0.367-4.876,5.308-9.542,10.023-9.466C383.025,199.115,388.066,204.322,387.892,209.197z"/>
	<path fill-rule="evenodd" clip-rule="evenodd" fill="#010101" d="M159.736,126.998c-2.242,1.867-4.877,3.495-7.318,5.311
		c-6.526,4.854-7.648,12.571-9.318,19.797c-0.649,2.811,2.499,2.216,3.457,1.73c3.99-2.025,7.723,1.103,11.586,0.188
		c1.109-0.263,1.921,0.298,1.794,1.66c-0.137,1.479-1.267,1.303-2.202,1.277c-8.309-0.222-15.959,2.473-23.76,4.895
		c-17.507,5.433-26.851,20.957-27.103,37.446c-0.198,12.982,2.419,25.127,9.826,35.641c5.657,8.029,13.67,13.505,23.617,15.771
		c14,3.189,27.948,3.08,42.357,0.159c-0.291-1.657-3.013-2.971-1.225-4.528c1.395-1.214,3.06,0.185,4.627,0.542
		c4.734,1.079,9.259,3.152,14.242,3.087c1.161-0.015,2.476,0.194,3.086-1.047c0.586-1.193-0.831-1.568-1.3-2.342
		c-4.413-7.256-6.85-15.022-6.133-23.615c0.085-1.023,0.034-2.021,1.515-1.97c1.005,0.034,1.297,0.495,1.528,1.472
		c1.985,8.427,7.834,14.525,13.212,20.756c1.513,1.753,4.582,2.426,7.64,0.867c7.099-3.617,12.771-8.824,18.092-14.574
		c1.163-1.257,2.493-3.59,4.383-2.247c1.384,0.984,0.553,3.177-0.006,5c-2.023,6.607-6.595,11.331-11.807,16.498
		c6.348-0.706,11.529-3.198,16.886-4.917c2.007-0.645,3.203-1.822,3.714,1.251c0.223,1.343,1.618,0.817,2.506,0.839
		c12.656,0.316,25.367,0.77,37.165-5.023c10.749-5.279,19.42-12.939,24.032-24.153c3.528-8.579-0.313-15.858-5.936-22.317
		c-1.527-1.754-3.229-3.364-4.928-4.958c-0.973-0.913-1.464-2.092-0.686-3.02c0.46-0.548,1.974-0.696,2.778-0.395
		c7.249,2.719,17.334,13.438,17.954,21.812c0.934,12.598-3.903,22.067-12.965,30.89c-13.977,13.609-30.297,15.431-48.266,13.363
		c-4.093-0.471-8.194-1.192-11.903-2.468c-3.907-1.344-6.74,0.796-8.646,2.272c-4.901,3.798-10.094,6.412-16.104,6.919
		c-5.048,0.426-6.077,3.647-6.092,7.469c-0.046,12.208-3.161,23.877-6.172,35.518c-4.652,17.992-24.504,32.424-43.206,32.197
		c-2.669-0.033-3.67-0.936-4.316-3.26c-1.558-5.604,2.242-12.181,7.592-13.927c14.488-4.726,26.537-13.188,32.467-27.391
		c3.458-8.28,6.162-17.533,3.689-27.13c-0.487-1.895-0.967-2.478-2.76-2.39c-7.281,0.356-13.746-2.185-19.798-5.9
		c-4.224-2.592-7.415,1.015-10.929,1.84c-16.211,3.806-32.236,5.408-48.225-0.839c-10.976-4.288-18.758-11.633-24.252-22.241
		c-5.215-10.067-7.069-20.686-6.977-31.537c0.164-19.245,8.02-34.498,26.19-42.906c3.994-1.848,8.624-2.338,12.979-3.381
		c2.135-0.512,3.711-0.719,2.436-3.86c-3.058-7.533-1.392-14.052,3.188-21.102c4.907-7.552,11.946-9.131,19.386-11.003
		c1.213-0.306,2-0.098,2.797-1.806c7.714-16.536,19.893-22.789,37.872-19.421c10.683,2,20.41,5.333,28.258,13.046
		c1.273,1.25,1.721,0.36,2.707-0.272c6.426-4.119,12.667-8.124,21.052-7.766c8.268,0.353,15.676,3.316,21.688,7.87
		c9.992,7.571,19.414,16.139,24.699,28.157c5.354,12.172,5.591,24.565,2.997,37.403c-1.71,8.462-6.589,15.064-11.176,21.918
		c-0.81,1.21-2.084,2.58-3.701,1.539c-1.152-0.742-0.584-1.983,0.223-3c4.986-6.281,7.107-13.827,8.074-21.461
		c1.972-15.563-1.932-29.599-11.967-42.029c-5.257-6.51-11.391-11.984-17.654-17.329c-8.706-7.43-22.857-6.229-31.712,2.07
		c-4.589,4.3-8.603,9.071-12.099,14.257c-0.846,1.254-1.488,2.399-2.881,1.517c-1.024-0.649-0.902-2.339-0.268-3.203
		c2.687-3.659,2.923-8.589,6.459-11.83c2.523-2.313,1.646-4.344-1.278-5.559c-7.679-3.192-15.78-4.682-23.911-6.255
		c-6.698-1.296-12.953-1.049-18.961,2.14c-6.275,3.332-11.618,7.668-14.589,14.405c-0.711,1.612-1.725,3.089-2.54,4.659
		c-0.67,1.294-0.997,2.917-2.929,2.882C159.595,130.901,162.023,127.983,159.736,126.998z"/>
	<path fill-rule="evenodd" clip-rule="evenodd" fill="#010101" d="M130.983,193.468c0.273,11.229,2.84,21.592,10.904,30.035
		c1.22,1.277,3.268,3.389,1.559,5.007c-1.598,1.514-3.714-0.411-5.031-1.695c-10.619-10.359-15.404-23.678-10.597-39.344
		c0.297-0.969-0.21-2.529,1.664-2.454c2.283,0.091,1.379,1.854,1.463,2.967C131.083,189.801,130.983,191.638,130.983,193.468z"/>
	<path fill-rule="evenodd" clip-rule="evenodd" fill="#010101" d="M267.965,165.246c-0.001,0.833,0.037,1.667-0.012,2.497
		c-0.054,0.922,0.252,2.083-1.253,2.206c-1.272,0.103-1.494-0.603-1.815-1.722c-0.799-2.785-1.921-5.476-2.912-8.206
		c-2.78-7.663-8.865-12.083-15.571-15.91c-1.395-0.796-4.257-0.806-3.191-3.277c0.814-1.886,3.389-1.074,4.931-0.681
		C259.022,142.929,268.134,152.912,267.965,165.246z"/>
	<path fill-rule="evenodd" clip-rule="evenodd" fill="#010101" d="M269.222,235.025c-1.113-0.436-2.851,0.814-3.224-1.322
		c-0.34-1.954,1.532-2.155,2.491-2.497c10.217-3.648,18.555-9.496,23.542-19.431c0.386-0.769,0.977-0.753,1.606-0.771
		c1.124-0.03,1.243,0.754,1.329,1.635c0.234,2.388-0.741,4.493-1.707,6.511C288.435,229.234,279.813,233.65,269.222,235.025z"/>
	<path fill-rule="evenodd" clip-rule="evenodd" fill="#211916" d="M218.08,224.066c-7.03,0.042-11.324-3.499-14.715-8.546
		c-0.703-1.046-1.132-2.431-0.061-3.142c1.634-1.083,1.775,0.948,2.301,1.715c6.508,9.464,18.114,9.568,24.525,0.127
		c0.611-0.897,0.732-2.662,2.259-1.737c1.194,0.725,0.403,1.946-0.192,3.043C229.023,221.379,223.995,223.9,218.08,224.066z"/>
	<g>
		<path fill-rule="evenodd" clip-rule="evenodd" fill="#010101" stroke="#010101" stroke-width="0.2" stroke-miterlimit="10" d="
			M276.939,183.684c-1.308,1.216-0.931,2.649-0.621,4.14c2.463,11.874-4.291,23.295-15.729,26.662
			c-6.588,1.938-16.274-2.688-20.24-10.366c-5.732-11.098-3-27.653,11.4-32.984c5.763-2.134,10.687-0.636,15.471,2.462
			c1.027,0.665,1.646,2.538,3.188,1.607c1.554-0.937,2.662-2.352,2.717-4.459c0.037-1.445-1.109-4.236,1.177-4.011
			c2.302,0.227,2.387,3.047,1.936,5.233c-0.377,1.828-1.346,3.371-2.461,4.84c-1.47,1.936-0.992,3.353,1.218,4.254
			C275.514,182.032,277.032,182.26,276.939,183.684z M243.97,185.099c0.034,7.167,4.62,12.867,10.351,12.869
			c3.855,0.001,9.646-6.064,9.64-10.096c-0.011-6.608-4.364-11.793-9.991-11.899C248.713,175.874,243.947,180.224,243.97,185.099z
			 M264.461,207.765c1.948-0.364,4.266-1.578,4.441-4.679c0.166-2.879-2.434-3.859-4.494-4.008c-1.917-0.14-5.189-0.115-5.237,2.578
			C259.125,204.195,259.4,207.758,264.461,207.765z"/>
		<path fill-rule="evenodd" clip-rule="evenodd" fill="#010101" stroke="#010101" stroke-width="0.2" stroke-miterlimit="10" d="
			M276.939,183.684c0.093-1.424-1.426-1.652-1.945-2.622c4.59-1.011,7.076-4.006,7.882-8.495c0.242-1.349,0.341-3.019,2.135-2.539
			c1.66,0.444,1.171,2.348,0.907,3.466C284.754,178.43,282.108,182.208,276.939,183.684z"/>
	</g>
	<g>
		<path fill-rule="evenodd" clip-rule="evenodd" fill="#010101" stroke="#010101" stroke-width="0.2" stroke-miterlimit="10" d="
			M160.854,179.687c0.101-2.03-1.548-3.219-2.267-4.833c-1.272-2.849-3.185-6.1,1.398-8.048c0.259,0.388,0.519,0.775,0.778,1.163
			c0.066,1.659-0.258,3.464,0.297,4.939c0.684,1.819,1.682,3.566,4.364,1.456c6.322-4.976,13.363-6.043,20.285-1.484
			c7.62,5.02,11.426,12.376,10.593,21.602c-0.66,7.3-2.569,10.55-6.392,12.53c0.027-1.627,0.224-3.178-0.63-4.805
			c-1.236-2.356-2.913-3.892-5.483-3.022c-2.499,0.846-3.524,3.112-2.672,5.666c0.855,2.562,2.707,3.604,5.487,2.601
			c1.066-0.384,2.271-0.381,3.414-0.553c-2.066,5.592-10.858,9.41-17.052,7.559c-12.047-3.599-18.395-16.765-15.258-25.803
			c1.594-4.591-2.848-5.146-4.904-7.294c0.128-0.897,0.242-1.8,1.108-2.349c1.002,0.497,2.005,0.994,3.008,1.491
			c0.093,1.144,0.177,2.457,1.741,2.298C160.425,182.623,160.995,181.338,160.854,179.687z M163.961,186.904
			c0.017,4.781,5.276,10.038,10.044,10.041c5.233,0.002,9.994-5.32,9.906-11.074c-0.091-5.929-4.811-10.878-10.189-10.683
			C168.331,175.382,163.939,180.655,163.961,186.904z"/>
		<path fill-rule="evenodd" clip-rule="evenodd" fill="#010101" stroke="#010101" stroke-width="0.2" stroke-miterlimit="10" d="
			M149.289,169.836c2.157,1.975,0.823,5.224,2.67,7.312c-0.047,1.11-0.58,1.754-1.732,1.8c-1.631-1.697-3.135-3.46-3.106-6.015
			c1.073-0.841,0.833-1.993,0.737-3.11c0,0-0.021,0.043-0.021,0.043C148.321,169.856,148.805,169.846,149.289,169.836z"/>
		<path fill-rule="evenodd" clip-rule="evenodd" fill="#010101" stroke="#010101" stroke-width="0.2" stroke-miterlimit="10" d="
			M160.854,179.687c0.142,1.651-0.428,2.936-2.185,3.115c-1.563,0.158-1.647-1.154-1.741-2.298
			C158.334,180.699,159.702,180.714,160.854,179.687z"/>
		<path fill-rule="evenodd" clip-rule="evenodd" fill="#010101" stroke="#010101" stroke-width="0.2" stroke-miterlimit="10" d="
			M150.227,178.947c1.152-0.046,1.685-0.689,1.732-1.8c0.653,0.621,1.307,1.242,1.961,1.864c-0.866,0.549-0.98,1.451-1.108,2.349
			C151.634,180.895,150.723,180.144,150.227,178.947z"/>
		<path fill-rule="evenodd" clip-rule="evenodd" fill="#010101" stroke="#010101" stroke-width="0.2" stroke-miterlimit="10" d="
			M147.858,169.822c0.096,1.117,0.336,2.27-0.737,3.11C146.489,171.688,146.309,170.55,147.858,169.822z"/>
		<path fill-rule="evenodd" clip-rule="evenodd" fill="#010101" stroke="#010101" stroke-width="0.2" stroke-miterlimit="10" d="
			M160.762,167.969c-0.259-0.388-0.519-0.775-0.778-1.163C160.655,166.918,161.04,167.222,160.762,167.969z"/>
		<path fill-rule="evenodd" clip-rule="evenodd" fill="#010101" stroke="#010101" stroke-width="0.2" stroke-miterlimit="10" d="
			M149.289,169.836c-0.483,0.01-0.967,0.021-1.451,0.029C148.298,168.746,148.787,168.953,149.289,169.836z"/>
	</g>
	<path fill-rule="evenodd" clip-rule="evenodd" fill="#FCFCFC" d="M243.97,185.099c-0.022-4.875,4.743-9.225,9.999-9.126
		c5.627,0.105,9.98,5.291,9.991,11.899c0.006,4.032-5.784,10.097-9.64,10.096C248.59,197.965,244.004,192.265,243.97,185.099z"/>
	<path fill-rule="evenodd" clip-rule="evenodd" fill="#F8F9F9" d="M264.461,207.765c-5.061-0.007-5.336-3.569-5.29-6.109
		c0.048-2.693,3.32-2.717,5.237-2.578c2.061,0.149,4.66,1.129,4.494,4.008C268.727,206.187,266.409,207.4,264.461,207.765z"/>
	<path fill-rule="evenodd" clip-rule="evenodd" fill="#F6F7F7" d="M163.961,186.904c-0.022-6.249,4.37-11.522,9.761-11.716
		c5.378-0.195,10.099,4.754,10.189,10.683c0.088,5.754-4.672,11.076-9.906,11.074C169.237,196.942,163.978,191.685,163.961,186.904z
		"/>
	<path fill-rule="evenodd" clip-rule="evenodd" fill="#F3F3F4" d="M190.025,206.898c-1.143,0.172-2.348,0.169-3.414,0.553
		c-2.78,1.003-4.632-0.039-5.487-2.601c-0.852-2.554,0.174-4.82,2.672-5.666c2.571-0.87,4.248,0.666,5.483,3.022
		c0.854,1.627,0.657,3.177,0.63,4.805C189.91,207.013,190.025,206.898,190.025,206.898z"/>
</g>
</svg>
