<?xml version="1.0" encoding="utf-8"?>
<!-- Generator: Adobe Illustrator 16.0.0, SVG Export Plug-In . SVG Version: 6.00 Build 0)  -->
<!DOCTYPE svg PUBLIC "-//W3C//DTD SVG 1.1//EN" "http://www.w3.org/Graphics/SVG/1.1/DTD/svg11.dtd">
<svg version="1.1" id="logo2_xA0_Image_1_" xmlns="http://www.w3.org/2000/svg" xmlns:xlink="http://www.w3.org/1999/xlink" x="0px"
	 y="0px" width="374.953px" height="351.707px" viewBox="0 0 374.953 351.707" enable-background="new 0 0 374.953 351.707"
	 xml:space="preserve">
<g>
	<path fill-rule="evenodd" clip-rule="evenodd" fill="#F19E83" d="M320.31,274.822c-9.194,3.48-18.396,6.941-28.183,8.438
		c-31.985,4.885-60.913-2.227-86.479-22.232c-14.837-11.611-26.085-26.178-33.138-43.568c-11.424-28.164-11.721-56.676,0.03-84.853
		c11.657-27.951,31.813-47.989,59.829-59.145c28.742-11.445,57.736-10.755,86.171,2.064c0.561,0.253,1.178,0.384,1.769,0.572
		c0,8.999,0,17.998,0,26.997c-1.459-0.363-2.006-1.783-2.951-2.696c-5.892-5.688-13.292-8.676-20.781-11.172
		c-7.81-2.603-15.786-3.239-23.807,0.251c-5.071,2.206-7.606,6.497-10.481,10.583c-0.798,1.134-1.13,1.433-2.435,0.939
		c-6.594-2.497-13.43-2.622-20.217-1.238c-13.322,2.717-21.099,7.406-23.035,22.695c-0.385,3.036-1.499,4.58-3.648,6.13
		c-3.995,2.881-6.923,6.085-8.08,11.495c-1.326,6.201-0.255,11.133,3.72,15.527c1.628,1.799,1.263,2.429-0.383,3.573
		c-2.259,1.57-4.581,3.128-6.543,5.035c-11.689,11.369-12.457,23.186-7.379,37.272c2.939,8.15,7.773,15.279,14.728,21.086
		c6.487,5.416,13.698,8.236,21.757,8.182c13.187-0.088,24.406-5.785,34.706-13.703c1.98-1.521,3.449-4.328,6.275-4.256
		c3.903,0.102,7.792,0.672,11.842-0.314c-4.861,9.746,1.936,20.979,10.407,20.25c0.4,0.014,0.781,0.053,0.851,0.564
		c0.578,1.75,0.795,3.41,0.235,5.318c-2.354,8.029-6.064,15.371-12.854,20.305c-4.202,3.053-3.793,6.58-3.205,10.482
		c0.307,2.035,1.755,4.527,3.895,3.758c9.83-3.537,16.506-10.611,19.814-20.414c1.828-5.414,2.187-11.242,1.745-17.023
		c2.532-0.715,4.4-2.111,4.398-4.963c-0.001-1.326,0.868-1.549,1.678-1.998c4.988-0.941,7.226-4.973,9.749-8.682
		C320.31,238.328,320.31,256.576,320.31,274.822z"/>
	<path fill-rule="evenodd" clip-rule="evenodd" fill="#928275" d="M320.31,43.102c-4.984,0.267-9.31-2.25-13.935-3.44
		c-22.29-5.737-44.534-5.621-66.866-0.387c-7.966,1.867-15.841,3.993-23.26,7.481c-15.904,7.478-30.07,17.431-42.515,29.875
		c-10.912,10.912-19.256,23.537-26.041,37.333c-8.774,17.841-13.534,36.667-14.185,56.487c-0.473,14.4,1.135,28.585,5.117,42.511
		c1.771,6.193,3.417,12.406,6.185,18.232c7.565,15.936,17.498,30.217,30.051,42.65c11.035,10.93,23.743,19.32,37.731,26.07
		c26.534,12.805,54.248,16.805,83.245,12.162c7.438-1.191,14.895-2.482,21.925-5.426c0.762-0.318,1.694-0.232,2.547-0.334
		c0,5.5,0,11,0,16.498c-14.788,5.377-30.092,7.537-45.781,7.695c-16.267,0.164-32.217-1.922-47.769-6.545
		c-12.375-3.68-24.004-9.137-35.021-15.951c-14.053-8.691-26.51-19.234-37.289-31.701c-7.235-8.369-13.418-17.473-18.627-27.309
		c-2.862-5.406-5.211-10.982-7.583-16.568c-7.483-17.613-11.153-36.014-11.355-55.159c-0.176-16.636,1.801-32.972,6.683-48.869
		c6.528-21.259,17.481-40.028,32.16-56.752c11.282-12.855,24.209-23.699,39.037-32.031c11.985-6.735,24.742-11.798,38.092-15.562
		c19.385-5.464,38.958-6.22,58.775-4.223c9.751,0.983,19.278,3.245,28.678,6.013C320.31,31.604,320.31,37.352,320.31,43.102z"/>
	<path fill-rule="evenodd" clip-rule="evenodd" fill="#F09D82" d="M320.31,113.593c0,24.247,0,48.494,0,72.741
		c-2.45,0.852-2.45-1.801-3.738-2.612c0,0,0.003-0.076,0.003-0.08c2.12,0.766,1.93-1.143,1.878-2
		c-0.144-2.398-0.97-4.564-3.37-5.752c-0.925-0.458-2.154-0.582-2.127-2.148c0.038-2.261-1.48-3.449-3.276-4.511
		c-1.281-0.758-3.034-1.558-1.633-3.633c9.887-3.248,12.221-16.373,6.749-24.302c-1.199-1.739-1.441-2.805,0.143-4.443
		c2.202-2.278,2.737-5.281,2.159-8.336c-0.162-0.854-0.321-2.62-1.916-2.166c-1.336,0.381-0.573,1.549-0.396,2.513
		c0.496,2.708,0.113,5.228-2.189,7.099c-0.699,0.568-1.541,1.02-2.389,0.477c-0.664-0.425-0.695-1.237-0.627-2.018
		c0.13-1.483,0.453-3.008,0.236-4.446c-0.212-1.402-0.962-3.413-2.636-2.888c-1.87,0.586-0.097,2.03,0.191,3.056
		c0.893,3.168-0.233,4.213-3.605,3.645c-4.377-0.738-8.34-0.016-11.625,3.435c-7.631,8.015-5.021,22.294,5.072,27.206
		c1.16,0.564,2.845,0.489,2.916,2.385c0.641,1.452-0.622,2.469-0.853,3.722c-2.027,2.604-4.055,5.208-6.081,7.815
		c-0.996,0.684-1.596,1.613-1.752,2.818l-0.029,0.053c-1.234,1.342-1.02,2.84-0.471,4.374c0.026,0.246,0.055,0.492,0.082,0.736
		c-0.19,1.355,0.457,2.516,0.872,3.73c0.095,0.268,0.188,0.533,0.282,0.801c0.126,0.494,0.251,0.986,0.377,1.48
		c0.153,0.803,0.307,1.605,0.46,2.406c-1.213,2.738-3.764,4.418-6.193,3.295c-5.46-2.521-11.185-4.891-15.13-9.848
		c-0.504-0.633-0.805-1.686-2-1.17c-1.063,0.459-0.54,1.236-0.328,1.887c1.963,6.033,5.942,10.537,10.923,14.258
		c0.561,0.418,1.598,0.32,1.66,1.262c0.075,1.146-0.993,1.268-1.748,1.631c-3.521,1.693-7.411,1.48-11.137,2.076
		c-1.215,0.193-2.703-0.1-3.071,1.283c-0.33,1.242,1.187,1.664,2.528,2.195c-7.686,5.408-15.603,8.818-24.082,11.279
		c-8.982,2.605-17.966,2.504-25.695-2.291c-11.149-6.918-18.008-17.381-20.037-30.66c-1.1-7.192,0.262-14.071,4.624-19.63
		c5.394-6.873,11.983-12.702,20.329-16.072c0.678-0.274,1.555-0.462,1.169-1.49c-0.308-0.817-1.028-1.19-1.794-0.672
		c-2.459,1.663-5.819,0.873-8.099,3.292c-1.315,1.397-2.879,1.086-3.279-1.27c-1.321-7.753-1.077-15.119,5.292-21.098
		c1.063-0.027,0.609,2.629,2.431,1.793c1.474-0.676,1.149-2.092,1.19-3.281c0.261-7.387,2.317-13.948,7.805-19.304
		c3.081-3.007,6.732-4.259,10.729-5.237c5.851-1.432,11.698-2.68,17.76-2.684c2.795-0.001,4.534,0.757,3.101,3.942
		c-1.412,3.136,0.111,6.502-0.862,9.69c-0.16,0.525,0.156,1.88,1.265,1.952c1.044,0.067,1.25-0.685,1.447-1.696
		c0.848-4.362,2.062-8.615,3.82-12.731c3.805-8.902,12.104-13.802,21.39-11.5c8.267,2.05,16.105,5.398,23.162,10.432
		C313.955,107.073,316.51,110.998,320.31,113.593z M248.727,189.433c2.198,0.416,4.211-0.211,6.095-1.225
		c5.494-2.957,8.383-11.11,6.574-18.361c-1.746-7.002-6.425-11.145-13.23-12.623c-6.354-1.38-11.19,1.268-14.209,7.006
		c-0.927,1.76-1.943,1.091-3.017,0.415c-1.024-0.646-1.193-1.845-1.631-2.863c-0.323-0.753-0.432-1.969-1.649-1.433
		c-0.854,0.376-0.996,1.399-0.764,2.3c0.524,2.031,1.64,3.581,3.639,4.455c0.943,0.413,1.779,1.127,1.468,2.309
		c-0.327,1.245-1.474,1.176-2.465,1.163c-2.613-0.034-4.875-0.624-6.224-3.266c-0.46-0.901-1.193-2.75-2.672-1.562
		c-1.179,0.948-0.241,2.318,0.599,3.285c1.869,2.153,4.24,3.663,7.069,3.764c2.872,0.102,3.826,1.461,4.462,4.063
		C234.625,184.457,240.905,189.257,248.727,189.433z M232.436,208.685c1.001,0.09,2.084,0.008,2.286-0.936
		c0.317-1.486-1.172-2.285-2.111-2.686c-9.268-3.941-14.467-11.361-17.968-20.369c-0.421-1.083-0.349-3.376-2.227-2.728
		c-1.76,0.607-0.63,2.56-0.489,3.89c0.52,4.922,2.853,9.191,5.624,13.08C221.189,204.042,226.607,206.773,232.436,208.685z
		 M283.979,115.959c-1.325,0.207-2.584,0.23-3.705,0.635c-0.923,0.333-2.558,0.313-2.331,1.854c0.223,1.518,1.717,1.063,2.743,1.148
		c3.021,0.252,5.897,0.972,8.803,1.889c5.076,1.602,8.012,5.621,11.385,9.186c0.546,0.577,0.958,1.236,1.799,0.804
		c0.89-0.456,0.556-1.24,0.304-1.951C299.962,121.055,293.042,116.248,283.979,115.959z M280.277,184.143
		c5.891,0.119,11.974-5.723,12.024-11.494c0.008-0.836-0.123-1.589-0.925-1.792c-0.781-0.199-0.879,0.556-1.059,1.168
		c-2.918,9.917-8.556,12.321-17.337,7.401c-0.515-0.287-0.989-0.975-1.597-0.342c-0.689,0.717-0.175,1.449,0.362,1.922
		C274.175,183.141,277.073,184.077,280.277,184.143z"/>
	<path fill-rule="evenodd" clip-rule="evenodd" fill="#080504" d="M320.31,113.593c-3.8-2.595-6.354-6.52-10.125-9.209
		c-7.057-5.034-14.896-8.382-23.162-10.432c-9.286-2.302-17.585,2.598-21.39,11.5c-1.759,4.116-2.973,8.37-3.82,12.731
		c-0.197,1.011-0.403,1.764-1.447,1.696c-1.108-0.071-1.425-1.427-1.265-1.952c0.974-3.188-0.55-6.555,0.862-9.69
		c1.434-3.185-0.306-3.943-3.101-3.942c-6.062,0.003-11.909,1.252-17.76,2.684c-3.996,0.978-7.647,2.23-10.729,5.237
		c-5.487,5.356-7.544,11.917-7.805,19.304c-0.041,1.189,0.283,2.604-1.19,3.281c-1.821,0.835-1.368-1.821-2.431-1.793
		c-6.369,5.979-6.613,13.344-5.292,21.098c0.4,2.356,1.964,2.667,3.279,1.27c2.279-2.42,5.64-1.629,8.099-3.292
		c0.766-0.518,1.486-0.145,1.794,0.672c0.386,1.028-0.491,1.216-1.169,1.49c-8.346,3.37-14.936,9.199-20.329,16.072
		c-4.362,5.559-5.724,12.438-4.624,19.63c2.029,13.279,8.888,23.742,20.037,30.66c7.729,4.795,16.713,4.896,25.695,2.291
		c8.479-2.461,16.396-5.871,24.082-11.279c-1.342-0.531-2.858-0.953-2.528-2.195c0.368-1.383,1.856-1.09,3.071-1.283
		c3.726-0.596,7.616-0.383,11.137-2.076c0.755-0.363,1.823-0.484,1.748-1.631c-0.063-0.941-1.1-0.844-1.66-1.262
		c-4.98-3.721-8.96-8.225-10.923-14.258c-0.212-0.65-0.735-1.428,0.328-1.887c1.195-0.516,1.496,0.537,2,1.17
		c3.945,4.957,9.67,7.326,15.13,9.848c2.43,1.123,4.98-0.557,6.193-3.295c0.351-0.09,0.701-0.182,1.052-0.271
		c0.015,0.299,0.028,0.596,0.043,0.895c-0.05,1.072-0.28,2.189,0.762,2.982c0.019,0.439,0.037,0.879,0.056,1.316
		c-0.308,0.902-0.249,1.738,0.463,2.447c0.109,1.992,0.43,3.99-0.141,5.967c-0.659,0.271-1.642-0.016-2.186,1.609
		c1.055-0.766,1.623-1.18,2.191-1.592c0.063,1.979,0.124,3.957,0.186,5.938c-0.473,0.02-0.945,0.039-1.418,0.061
		c-1.171-1.059-2.401-1.174-3.699-0.234c-0.635-0.883,0.872-2.398-0.72-2.891c-1.059-0.328-1.745,0.688-2.513,1.303
		c-4.612,3.695-4.552,9.537,0.183,15.273c1.715,0.797,2.094,3.857,4.862,2.869c0.622,0.77,1.244,1.541,1.866,2.311
		c-8.472,0.729-15.269-10.504-10.407-20.25c-4.05,0.986-7.938,0.416-11.842,0.314c-2.826-0.072-4.295,2.734-6.275,4.256
		c-10.3,7.918-21.52,13.615-34.706,13.703c-8.059,0.055-15.27-2.766-21.757-8.182c-6.954-5.807-11.788-12.936-14.728-21.086
		c-5.078-14.086-4.311-25.903,7.379-37.272c1.962-1.907,4.284-3.465,6.543-5.035c1.646-1.144,2.011-1.774,0.383-3.573
		c-3.975-4.394-5.046-9.326-3.72-15.527c1.157-5.409,4.085-8.614,8.08-11.495c2.149-1.55,3.264-3.094,3.648-6.13
		c1.937-15.289,9.713-19.978,23.035-22.695c6.787-1.384,13.623-1.259,20.217,1.238c1.305,0.494,1.637,0.195,2.435-0.939
		c2.875-4.086,5.41-8.377,10.481-10.583c8.021-3.49,15.997-2.854,23.807-0.251c7.489,2.497,14.89,5.484,20.781,11.172
		c0.945,0.913,1.492,2.333,2.951,2.696C320.31,106.594,320.31,110.093,320.31,113.593z"/>
	<path fill-rule="evenodd" clip-rule="evenodd" fill="#F8F9F9" d="M294.004,232.732c-0.622-0.77-1.244-1.541-1.866-2.311
		c-3.813-5.211-6.264-10.566-1.771-16.658l-0.041,0.104c1.298-0.939,2.528-0.824,3.699,0.234c0.043,0.506,0.087,1.012,0.131,1.518
		c0.514,0.924-2.837,2.695,0.651,2.967c1.659-1.314,0.562-3.012,0.636-4.545c-0.062-1.98-0.123-3.959-0.186-5.939l-0.006-0.016
		c0.57-1.977,0.25-3.975,0.141-5.967c0.271-0.896,0.129-1.715-0.463-2.447c-0.019-0.438-0.037-0.877-0.056-1.316
		c2.1-0.877,1.456-2.342,0.815-3.807c0.143-2.561-0.55-4.996-1.124-7.449c-0.122-0.338-0.242-0.674-0.363-1.01
		c0.149-1.827,0.858-3.403,2.313-4.522c3.38-2.604,6.495-5.253,7.649-9.751c0.548-2.135,2.713-2.337,4.662-1.216
		c1.676,0.964,3.77,3.119,2.603,4.212c-3.74,3.505-4.069,8.825-7.414,12.379c-4.012,4.264-1.218,8.736-0.608,13.146
		c0.456-1.293,0.55-2.611,0.435-3.912c-0.187-2.096-0.807-4.287,0.42-6.18c2.307-3.553,4.41-7.185,5.994-11.13
		c0.492-1.225,1.403-2.526,3.103-2.084c1.657,0.43,2.941,1.457,3.202,3.256c0.16,1.098,0.02,2.238,0.015,3.357
		c0,0-0.003,0.076-0.003,0.078c-0.429,2.099-3.505,1.819-3.695,4.188c-0.193,2.4-1.52,4.342-2.744,6.33
		c-1.05,1.703-1.689,3.545-0.906,5.582c0.277,1.383,0.553,2.768,0.941,4.709c0.559-1.949,0.687-3.314,0.283-4.705
		c-0.101-0.518-0.2-1.035-0.3-1.551c0.166-0.205,0.188-0.424,0.067-0.658c0.34-2.016,1.659-3.539,2.766-5.117
		c1.146-1.633,0.572-4.113,2.361-5.223c2.358-1.465,2.784,2.572,4.965,2.055c0,2.25,0,4.5,0,6.75
		c-0.975,0.732-1.748,1.576-1.607,2.924l-0.077-0.117c-1.426,0.469-2.521,1.258-2.917,2.918c1.065-0.016,2.245-1.273,2.455,1.1
		c0.244,2.768,0.824,5.609,2.146,8.174c0,0.998,0,2,0,2.998c-0.737,0.127-0.842,0.654-0.736,1.252
		c0.08,0.455,0.418,0.377,0.736,0.248c0,0.5,0,1,0,1.5c-1.319-0.77-1.319,0.379-1.504,1.094c-1.168,4.535-4.074,7.543-8.232,9.471
		c-2.672,0.318-5.346,0.635-8.148,0.969c0.709,1.309,1.621,1.076,2.46,1.047c0.917-0.031,2.097-0.646,2.469,0.74
		c0.323,1.207-0.487,2.1-1.327,2.861c-1.506,1.365-3.465,1.059-5.255,1.373c-1.972-0.445-3.945-0.893-5.917-1.338
		C294.785,232.785,294.404,232.746,294.004,232.732z"/>
	<path fill-rule="evenodd" clip-rule="evenodd" fill="#291D1A" d="M309.226,199.824c-0.783-2.037-0.144-3.879,0.906-5.582
		c1.225-1.988,2.551-3.93,2.744-6.33c0.19-2.369,3.267-2.09,3.695-4.188c1.288,0.81,1.288,3.462,3.738,2.61c0,1,0,2,0,3
		c-2.181,0.518-2.606-3.52-4.965-2.055c-1.789,1.109-1.216,3.59-2.361,5.223c-1.106,1.578-2.426,3.102-2.766,5.117
		c-0.067,0.061-0.194,0.125-0.19,0.18c0.014,0.162,0.078,0.318,0.123,0.479c0.1,0.516,0.199,1.033,0.3,1.551
		C310.042,199.826,309.634,199.824,309.226,199.824z"/>
	<path fill-rule="evenodd" clip-rule="evenodd" fill="#291D1A" d="M310.573,227.644c4.158-1.928,7.064-4.936,8.232-9.471
		c0.185-0.715,0.185-1.863,1.504-1.094c0,1,0,2,0,3c-2.523,3.709-4.761,7.74-9.749,8.682
		C310.565,228.388,310.569,228.015,310.573,227.644z"/>
	<path fill-rule="evenodd" clip-rule="evenodd" fill="#37241F" d="M320.31,211.082c-1.322-2.564-1.902-5.406-2.146-8.174
		c-0.21-2.373-1.39-1.115-2.455-1.1c0.396-1.66,1.491-2.449,2.916-2.918c0.108,2.188-0.111,4.463,1.686,6.191
		C320.31,207.082,320.31,209.082,320.31,211.082z"/>
	<path fill-rule="evenodd" clip-rule="evenodd" fill="#DA9077" d="M320.31,205.082c-1.797-1.729-1.577-4.004-1.686-6.191
		c0.001,0,0.078,0.117,0.078,0.117c0.801,0.406,1.01-0.598,1.607-0.676C320.31,200.582,320.31,202.832,320.31,205.082z"/>
	<path fill-rule="evenodd" clip-rule="evenodd" fill="#37241F" d="M320.31,198.332c-0.598,0.078-0.807,1.082-1.607,0.676
		c-0.141-1.348,0.633-2.191,1.607-2.924C320.31,196.832,320.31,197.582,320.31,198.332z"/>
	<path fill-rule="evenodd" clip-rule="evenodd" fill="#291D1A" d="M320.31,215.58c-0.318,0.129-0.656,0.207-0.736-0.248
		c-0.105-0.598-0.001-1.125,0.736-1.252C320.31,214.58,320.31,215.08,320.31,215.58z"/>
	<path fill-rule="evenodd" clip-rule="evenodd" fill="#F19E83" d="M165.218,223.968c0.035,4.463-2.779,7.443-7.017,7.43
		c-4.166-0.012-7.288-2.883-7.368-6.77c-0.093-4.498,2.915-7.656,7.265-7.627C162.231,217.029,165.185,219.917,165.218,223.968z"/>
	<path fill-rule="evenodd" clip-rule="evenodd" fill="#040302" d="M294.854,233.296c1.972,0.445,3.945,0.893,5.918,1.338
		c0.975,1.26,2.754-0.23,3.712,1.088c0.441,5.781,0.083,11.609-1.745,17.023c-3.309,9.803-9.984,16.877-19.814,20.414
		c-2.14,0.77-3.588-1.723-3.895-3.758c-0.588-3.902-0.997-7.43,3.205-10.482c6.79-4.934,10.5-12.275,12.854-20.305
		C295.649,236.707,295.433,235.046,294.854,233.296z"/>
	<path fill-rule="evenodd" clip-rule="evenodd" fill="#221F1F" d="M304.484,235.722c-0.958-1.318-2.737,0.172-3.712-1.088
		c1.789-0.314,3.748-0.008,5.254-1.373c0.84-0.762,1.65-1.654,1.327-2.861c-0.372-1.387-1.552-0.771-2.469-0.74
		c-0.839,0.029-1.751,0.262-2.46-1.047c2.803-0.334,5.477-0.65,8.148-0.969c-0.004,0.371-0.008,0.744-0.013,1.117
		c-0.81,0.449-1.679,0.672-1.678,1.998C308.885,233.611,307.017,235.007,304.484,235.722z"/>
	<path fill-rule="evenodd" clip-rule="evenodd" fill="#0D0B0A" d="M248.728,189.437c-7.822-0.18-14.103-4.98-15.956-12.575
		c-0.636-2.602-1.59-3.961-4.462-4.063c-2.829-0.101-5.2-1.611-7.069-3.764c-0.84-0.967-1.777-2.337-0.599-3.285
		c1.479-1.188,2.212,0.661,2.672,1.562c1.349,2.642,3.61,3.232,6.224,3.266c0.991,0.013,2.138,0.082,2.465-1.163
		c0.312-1.182-0.524-1.896-1.468-2.309c-1.999-0.874-3.114-2.424-3.639-4.455c-0.232-0.901-0.091-1.924,0.764-2.3
		c1.218-0.536,1.326,0.679,1.649,1.433c0.438,1.018,0.606,2.217,1.631,2.863c1.073,0.676,2.09,1.345,3.017-0.415
		c3.019-5.739,7.854-8.387,14.209-7.006c6.806,1.478,11.484,5.62,13.23,12.623c1.809,7.25-1.08,15.404-6.574,18.361
		C252.938,189.222,250.925,189.849,248.728,189.437z M250.736,170.208c-0.047-4.894-3.551-8.698-7.903-8.581
		c-4.287,0.115-7.242,3.54-7.073,8.439c0.152,4.407,4.048,7.392,8.598,7.464C248.013,177.588,250.774,174.322,250.736,170.208z
		 M260.341,179.045c-0.887-2.334-2.123-3.806-4.405-3.927c-2.069-0.11-2.982,1.265-3.03,3.044c-0.054,1.959,1.036,3.453,3.08,3.537
		C257.988,181.782,259.031,180.051,260.341,179.045z"/>
	<path fill-rule="evenodd" clip-rule="evenodd" fill="#0D0B0A" d="M300.129,166.813c-0.071-1.896-1.756-1.821-2.916-2.385
		c-10.094-4.912-12.703-19.191-5.072-27.206c3.285-3.451,7.248-4.173,11.625-3.435c3.372,0.569,4.498-0.476,3.605-3.645
		c-0.288-1.026-2.062-2.469-0.191-3.056c1.674-0.525,2.424,1.486,2.636,2.888c0.217,1.438-0.106,2.963-0.236,4.446
		c-0.068,0.781-0.037,1.592,0.627,2.018c0.848,0.543,1.689,0.092,2.389-0.477c2.303-1.871,2.686-4.391,2.189-7.099
		c-0.177-0.964-0.939-2.132,0.396-2.513c1.595-0.455,1.754,1.312,1.916,2.166c0.578,3.055,0.043,6.058-2.159,8.336
		c-1.584,1.638-1.342,2.705-0.143,4.443c5.472,7.93,3.138,21.054-6.75,24.302c-1.374-0.338-1.99,0.33-2.144,1.612
		C304.027,166.351,302.06,166.862,300.129,166.813z M299.588,154.806c3.209,0.203,7.057-3.886,7.332-7.791
		c0.214-3.034-4.557-7.884-8.055-8.189c-3.721-0.324-8.12,3.373-8.435,7.087C290.119,149.59,295.207,154.53,299.588,154.806z
		 M309.733,158.695c3.154,0.083,4.223-1.783,4.461-3.921c0.255-2.292-1.863-2.614-3.49-2.77c-2.071-0.198-3.972,1.55-4.095,2.904
		C306.47,156.446,307.941,158.367,309.733,158.695z"/>
	<path fill-rule="evenodd" clip-rule="evenodd" fill="#221F1F" d="M305.901,167.209c0.153-1.282,0.77-1.95,2.144-1.612
		c-1.4,2.075,0.353,2.875,1.634,3.633c1.796,1.062,3.314,2.25,3.276,4.511c-0.027,1.566,1.202,1.69,2.127,2.148
		c2.4,1.188,3.227,3.354,3.37,5.752c0.052,0.857,0.242,2.766-1.878,2c0.005-1.115,0.146-2.256-0.015-3.354
		c-0.261-1.799-1.545-2.826-3.202-3.256c-1.699-0.442-2.61,0.859-3.103,2.084c-1.584,3.945-3.688,7.577-5.994,11.13
		c-1.227,1.893-0.606,4.084-0.42,6.18c0.115,1.301,0.021,2.619-0.435,3.912c-0.609-4.41-3.403-8.883,0.608-13.146
		c3.345-3.554,3.674-8.874,7.414-12.379c1.167-1.093-0.927-3.248-2.603-4.212c-1.949-1.121-4.114-0.919-4.662,1.216
		c-1.154,4.498-4.27,7.147-7.649,9.751c-1.455,1.119-2.164,2.695-2.313,4.522c0.121,0.336,0.241,0.672,0.363,1.01
		c0.574,2.453,1.267,4.889,1.124,7.449c-0.525,0.275-1.052,0.549-1.577,0.824c-0.015-0.299-0.028-0.596-0.044-0.895
		c0.83-1.652-0.26-1.949-1.511-2.135c-0.126-0.494-0.251-0.986-0.375-1.48c0.418-0.109,0.835-0.219,1.253-0.328
		c-0.357-0.662-1.008-0.369-1.537-0.473c-0.415-1.215-1.063-2.375-0.872-3.73c0.293-0.096,0.843-0.209,0.838-0.289
		c-0.035-0.609-0.576-0.35-0.92-0.447c-0.549-1.534-0.764-3.032,0.47-4.376c1.026-0.787,0.486,4.907,2.371,0.574
		C299.725,178.512,301.649,171.895,305.901,167.209z"/>
	<path fill-rule="evenodd" clip-rule="evenodd" fill="#0F0A08" d="M232.436,208.685c-5.828-1.912-11.246-4.643-14.885-9.748
		c-2.771-3.889-5.104-8.158-5.624-13.08c-0.141-1.33-1.271-3.282,0.489-3.89c1.878-0.648,1.806,1.645,2.227,2.728
		c3.501,9.008,8.7,16.428,17.968,20.369c0.939,0.4,2.429,1.199,2.111,2.686C234.52,208.693,233.437,208.775,232.436,208.685z"/>
	<path fill-rule="evenodd" clip-rule="evenodd" fill="#0F0A08" d="M283.979,115.959c9.063,0.289,15.983,5.096,18.997,13.566
		c0.252,0.711,0.586,1.495-0.304,1.951c-0.841,0.432-1.253-0.227-1.799-0.804c-3.373-3.565-6.309-7.584-11.385-9.186
		c-2.905-0.917-5.781-1.637-8.803-1.889c-1.026-0.086-2.521,0.369-2.743-1.148c-0.227-1.542,1.408-1.521,2.331-1.854
		C281.395,116.189,282.653,116.166,283.979,115.959z"/>
	<path fill-rule="evenodd" clip-rule="evenodd" fill="#291D1A" d="M280.277,184.143c-3.204-0.066-6.103-1.002-8.53-3.137
		c-0.537-0.473-1.052-1.205-0.362-1.922c0.607-0.633,1.082,0.055,1.597,0.342c8.781,4.92,14.419,2.516,17.337-7.401
		c0.18-0.613,0.277-1.367,1.059-1.168c0.802,0.203,0.933,0.956,0.925,1.792C292.251,178.42,286.168,184.262,280.277,184.143z"/>
	<path fill-rule="evenodd" clip-rule="evenodd" fill="#F0EEED" d="M305.901,167.209c-4.252,4.685-6.177,11.303-12.117,14.584
		c-0.236-0.314-0.473-0.627-0.71-0.941c0.104-0.369,0.208-0.74,0.312-1.109c2.414-2.781,6.125-4.733,5.891-9.208
		c0.23-1.253,1.493-2.27,0.853-3.722C302.06,166.862,304.027,166.351,305.901,167.209z"/>
	<path fill-rule="evenodd" clip-rule="evenodd" fill="#37241F" d="M299.276,170.535c0.234,4.475-3.477,6.426-5.891,9.208
		c-0.064-0.465-0.128-0.93-0.191-1.395C295.222,175.744,297.249,173.139,299.276,170.535z"/>
	<path fill-rule="evenodd" clip-rule="evenodd" fill="#221F1F" d="M292.557,192.343c1.251,0.186,2.341,0.482,1.511,2.135
		c-0.35,0.09-0.7,0.182-1.051,0.271C292.863,193.949,292.71,193.146,292.557,192.343z"/>
	<path fill-rule="evenodd" clip-rule="evenodd" fill="#F0EEED" d="M293.784,181.793c-1.885,4.333-1.345-1.361-2.371-0.574
		c0.001,0.002,0.03-0.051,0.03-0.051c0.75,0.955,1.129,0.004,1.631-0.316C293.312,181.167,293.548,181.479,293.784,181.793z"/>
	<path fill-rule="evenodd" clip-rule="evenodd" fill="#291D1A" d="M293.074,180.852c-0.502,0.32-0.881,1.271-1.631,0.316
		c0.156-1.205,0.756-2.135,1.752-2.818c0.063,0.463,0.126,0.928,0.19,1.393C293.282,180.112,293.178,180.483,293.074,180.852z"/>
	<path fill-rule="evenodd" clip-rule="evenodd" fill="#221F1F" d="M291.897,190.062c0.529,0.104,1.18-0.189,1.537,0.473
		c-0.418,0.109-0.835,0.219-1.253,0.328C292.085,190.595,291.992,190.33,291.897,190.062z"/>
	<path fill-rule="evenodd" clip-rule="evenodd" fill="#221F1F" d="M290.943,185.595c0.344,0.098,0.885-0.162,0.92,0.447
		c0.005,0.08-0.545,0.193-0.838,0.289C290.998,186.087,290.97,185.841,290.943,185.595z"/>
	<path fill-rule="evenodd" clip-rule="evenodd" fill="#DA9077" d="M290.325,213.867l0.041-0.104
		c-3.672,0.768-3.648,3.781-3.944,6.564c-0.263,2.463,1.432,4.713,0.854,7.225c-4.734-5.736-4.795-11.578-0.183-15.273
		c0.768-0.615,1.454-1.631,2.513-1.303C291.197,211.468,289.69,212.984,290.325,213.867z"/>
	<path fill-rule="evenodd" clip-rule="evenodd" fill="#221F1F" d="M287.275,227.552c0.578-2.512-1.116-4.762-0.854-7.225
		c0.296-2.783,0.272-5.797,3.944-6.564c-4.492,6.092-2.042,11.447,1.771,16.658C289.369,231.41,288.99,228.349,287.275,227.552z"/>
	<path fill-rule="evenodd" clip-rule="evenodd" fill="#221F1F" d="M294.111,195.373c0.525-0.275,1.052-0.549,1.577-0.824
		c0.641,1.465,1.284,2.93-0.815,3.807C293.831,197.562,294.062,196.445,294.111,195.373z"/>
	<path fill-rule="evenodd" clip-rule="evenodd" fill="#221F1F" d="M294.155,215.619c-0.044-0.506-0.088-1.012-0.131-1.518
		c0.473-0.021,0.945-0.041,1.418-0.061c-0.074,1.533,1.023,3.23-0.636,4.545C294.772,217.556,295.318,216.398,294.155,215.619z"/>
	<path fill-rule="evenodd" clip-rule="evenodd" fill="#221F1F" d="M295.251,208.085l0.006,0.016
		c-0.568,0.414-1.137,0.828-2.191,1.594C293.609,208.07,294.592,208.357,295.251,208.085z"/>
	<path fill-rule="evenodd" clip-rule="evenodd" fill="#221F1F" d="M294.929,199.671c0.592,0.732,0.733,1.551,0.463,2.447
		C294.68,201.41,294.621,200.574,294.929,199.671z"/>
	<path fill-rule="evenodd" clip-rule="evenodd" fill="#37241F" d="M309.226,199.824c0.408,0,0.816,0.002,1.225,0.004
		c0.403,1.391,0.275,2.756-0.283,4.705C309.778,202.591,309.503,201.207,309.226,199.824z"/>
	<path fill-rule="evenodd" clip-rule="evenodd" fill="#221F1F" d="M294.155,215.619c1.163,0.779,0.617,1.938,0.651,2.967
		C291.318,218.314,294.669,216.542,294.155,215.619z"/>
	<path fill-rule="evenodd" clip-rule="evenodd" fill="#37241F" d="M310.15,198.277c-0.045-0.16-0.109-0.316-0.123-0.479
		c-0.004-0.055,0.123-0.119,0.19-0.18C310.339,197.853,310.316,198.072,310.15,198.277z"/>
	<path fill-rule="evenodd" clip-rule="evenodd" fill="#523D37" d="M294.564,187.099c-0.122-0.338-0.242-0.674-0.363-1.01
		C294.322,186.425,294.442,186.761,294.564,187.099z"/>
	<path fill-rule="evenodd" clip-rule="evenodd" fill="#F6F6F6" d="M250.736,170.208c0.038,4.114-2.724,7.38-6.379,7.322
		c-4.55-0.072-8.445-3.057-8.598-7.464c-0.169-4.899,2.786-8.324,7.073-8.439C247.186,161.51,250.689,165.314,250.736,170.208z"/>
	<path fill-rule="evenodd" clip-rule="evenodd" fill="#F0EEED" d="M260.341,179.045c-1.31,1.006-2.353,2.736-4.355,2.654
		c-2.044-0.084-3.134-1.578-3.08-3.537c0.048-1.779,0.961-3.154,3.03-3.044C258.218,175.24,259.454,176.711,260.341,179.045z"/>
	<path fill-rule="evenodd" clip-rule="evenodd" fill="#F8F9F9" d="M299.588,154.806c-4.381-0.276-9.469-5.216-9.157-8.893
		c0.314-3.714,4.714-7.411,8.435-7.087c3.498,0.305,8.269,5.155,8.055,8.189C306.645,150.92,302.797,155.009,299.588,154.806z"/>
	<path fill-rule="evenodd" clip-rule="evenodd" fill="#F0EEED" d="M309.733,158.695c-1.792-0.328-3.264-2.249-3.124-3.786
		c0.123-1.354,2.023-3.102,4.095-2.904c1.627,0.155,3.745,0.478,3.49,2.77C313.956,156.912,312.888,158.778,309.733,158.695z"/>
</g>
</svg>
