<?xml version="1.0" encoding="utf-8"?>
<!-- Generator: Adobe Illustrator 16.0.0, SVG Export Plug-In . SVG Version: 6.00 Build 0)  -->
<!DOCTYPE svg PUBLIC "-//W3C//DTD SVG 1.1//EN" "http://www.w3.org/Graphics/SVG/1.1/DTD/svg11.dtd">
<svg version="1.1" id="Calque_1" xmlns="http://www.w3.org/2000/svg" xmlns:xlink="http://www.w3.org/1999/xlink" x="0px" y="0px"
	 width="500px" height="500px" viewBox="0 0 500 500" enable-background="new 0 0 500 500" xml:space="preserve">
<g>
	<g>
		<path fill="#908175" d="M398.079,310.922c-22.655-22.654-49.62-39.426-79.041-49.578c31.51-21.702,52.212-58.023,52.212-99.094
			C371.25,95.944,317.306,42,251,42S130.75,95.944,130.75,162.25c0,41.07,20.702,77.392,52.213,99.094
			c-29.42,10.152-56.386,26.924-79.041,49.578C64.636,350.208,43,402.441,43,458h32.5c0-96.771,78.729-175.5,175.5-175.5
			c96.771,0,175.5,78.729,175.5,175.5H459C459,402.441,437.364,350.208,398.079,310.922z M251,250
			c-48.385,0-87.75-39.364-87.75-87.75S202.615,74.5,251,74.5c48.385,0,87.75,39.364,87.75,87.75S299.385,250,251,250z"/>
	</g>
</g>
</svg>
